<svg xmlns="http://www.w3.org/2000/svg" xmlns:xlink="http://www.w3.org/1999/xlink" width="1920" height="1080" viewBox="0 0 1920 1080">
  <defs>
    <clipPath id="clip-path">
      <path id="Path_254" data-name="Path 254" d="M291.492,1384.684S71.132,1205.67,301.981,1033.2,285.488,761.235,437.749,602.914s316.69,56.963,419.23-91.55c131.779-190.863,471.009-315.35,630.178-71.576,131.781,201.826,422.035,33.851,422.035,410.644,0,267.834,344.992,198.583,145.078,534.252Z" transform="translate(-196.59 -304.684)" fill="none"/>
    </clipPath>
  </defs>
  <g id="Group_632" data-name="Group 632" transform="translate(-196.59 -304.684)">
    <path id="Path_229" data-name="Path 229" d="M291.492,1384.684S71.132,1205.67,301.981,1033.2,285.488,761.235,437.749,602.914s316.69,56.963,419.23-91.55c131.779-190.863,471.009-315.35,630.178-71.576,131.781,201.826,422.035,33.851,422.035,410.644,0,267.834,344.992,198.583,145.078,534.252Z" transform="translate(0)" fill="#e2e9fb"/>
    <g id="Group_631" data-name="Group 631" transform="translate(196.59 304.684)">
      <g id="Group_630" data-name="Group 630" clip-path="url(#clip-path)">
        <g id="Group_611" data-name="Group 611" transform="translate(-13.153 -51.668)">
          <g id="Group_606" data-name="Group 606" transform="translate(114.208 530.503)">
            <g id="Group_581" data-name="Group 581" transform="translate(639.751)">
              <rect id="Rectangle_1496" data-name="Rectangle 1496" width="2.481" height="322.092" fill="#fff"/>
            </g>
            <g id="Group_582" data-name="Group 582" transform="translate(599.767)">
              <rect id="Rectangle_1497" data-name="Rectangle 1497" width="2.481" height="322.092" fill="#fff"/>
            </g>
            <g id="Group_583" data-name="Group 583" transform="translate(559.782)">
              <rect id="Rectangle_1498" data-name="Rectangle 1498" width="2.481" height="322.092" fill="#fff"/>
            </g>
            <g id="Group_584" data-name="Group 584" transform="translate(519.798)">
              <rect id="Rectangle_1499" data-name="Rectangle 1499" width="2.481" height="322.092" fill="#fff"/>
            </g>
            <g id="Group_585" data-name="Group 585" transform="translate(479.813)">
              <rect id="Rectangle_1500" data-name="Rectangle 1500" width="2.481" height="322.092" fill="#fff"/>
            </g>
            <g id="Group_586" data-name="Group 586" transform="translate(439.829)">
              <rect id="Rectangle_1501" data-name="Rectangle 1501" width="2.481" height="322.092" fill="#fff"/>
            </g>
            <g id="Group_587" data-name="Group 587" transform="translate(399.845)">
              <rect id="Rectangle_1502" data-name="Rectangle 1502" width="2.481" height="322.092" fill="#fff"/>
            </g>
            <g id="Group_588" data-name="Group 588" transform="translate(359.86)">
              <rect id="Rectangle_1503" data-name="Rectangle 1503" width="2.481" height="322.092" fill="#fff"/>
            </g>
            <g id="Group_589" data-name="Group 589" transform="translate(319.875)">
              <rect id="Rectangle_1504" data-name="Rectangle 1504" width="2.481" height="322.092" fill="#fff"/>
            </g>
            <g id="Group_590" data-name="Group 590" transform="translate(279.891)">
              <rect id="Rectangle_1505" data-name="Rectangle 1505" width="2.481" height="322.092" fill="#fff"/>
            </g>
            <g id="Group_591" data-name="Group 591" transform="translate(239.906)">
              <rect id="Rectangle_1506" data-name="Rectangle 1506" width="2.481" height="322.092" fill="#fff"/>
            </g>
            <g id="Group_592" data-name="Group 592" transform="translate(199.922)">
              <rect id="Rectangle_1507" data-name="Rectangle 1507" width="2.481" height="322.092" fill="#fff"/>
            </g>
            <g id="Group_593" data-name="Group 593" transform="translate(159.938)">
              <rect id="Rectangle_1508" data-name="Rectangle 1508" width="2.481" height="322.092" fill="#fff"/>
            </g>
            <g id="Group_594" data-name="Group 594" transform="translate(119.954)">
              <rect id="Rectangle_1509" data-name="Rectangle 1509" width="2.481" height="322.092" fill="#fff"/>
            </g>
            <g id="Group_595" data-name="Group 595" transform="translate(79.969)">
              <rect id="Rectangle_1510" data-name="Rectangle 1510" width="2.481" height="322.092" fill="#fff"/>
            </g>
            <g id="Group_596" data-name="Group 596" transform="translate(39.984)">
              <rect id="Rectangle_1511" data-name="Rectangle 1511" width="2.481" height="322.092" fill="#fff"/>
            </g>
            <g id="Group_597" data-name="Group 597">
              <rect id="Rectangle_1512" data-name="Rectangle 1512" width="2.481" height="322.092" fill="#fff"/>
            </g>
            <g id="Group_605" data-name="Group 605" transform="translate(1.241 43.028)">
              <g id="Group_598" data-name="Group 598" transform="translate(0 236.367)">
                <rect id="Rectangle_1513" data-name="Rectangle 1513" width="639.751" height="2.445" fill="#fff"/>
              </g>
              <g id="Group_599" data-name="Group 599" transform="translate(0 196.971)">
                <rect id="Rectangle_1514" data-name="Rectangle 1514" width="639.751" height="2.445" fill="#fff"/>
              </g>
              <g id="Group_600" data-name="Group 600" transform="translate(0 157.578)">
                <rect id="Rectangle_1515" data-name="Rectangle 1515" width="639.751" height="2.445" fill="#fff"/>
              </g>
              <g id="Group_601" data-name="Group 601" transform="translate(0 118.183)">
                <rect id="Rectangle_1516" data-name="Rectangle 1516" width="639.751" height="2.445" fill="#fff"/>
              </g>
              <g id="Group_602" data-name="Group 602" transform="translate(0 78.788)">
                <rect id="Rectangle_1517" data-name="Rectangle 1517" width="639.751" height="2.445" fill="#fff"/>
              </g>
              <g id="Group_603" data-name="Group 603" transform="translate(0 39.394)">
                <rect id="Rectangle_1518" data-name="Rectangle 1518" width="639.751" height="2.445" fill="#fff"/>
              </g>
              <g id="Group_604" data-name="Group 604">
                <rect id="Rectangle_1519" data-name="Rectangle 1519" width="639.751" height="2.445" fill="#fff"/>
              </g>
            </g>
          </g>
          <g id="Group_607" data-name="Group 607" transform="translate(1042.485)">
            <rect id="Rectangle_1520" data-name="Rectangle 1520" width="24.68" height="1131.667" fill="#d3ddf8"/>
            <rect id="Rectangle_1521" data-name="Rectangle 1521" width="24.679" height="1131.667" transform="translate(237.403)" fill="#d3ddf8"/>
            <rect id="Rectangle_1522" data-name="Rectangle 1522" width="24.679" height="1131.667" transform="translate(474.805)" fill="#d3ddf8"/>
            <rect id="Rectangle_1523" data-name="Rectangle 1523" width="22.875" height="689.595" transform="translate(694.408 554.395) rotate(90)" fill="#d3ddf8"/>
            <rect id="Rectangle_1524" data-name="Rectangle 1524" width="178.685" height="689.595" transform="translate(694.408 78.576) rotate(90)" fill="#d3ddf8"/>
          </g>
          <rect id="Rectangle_1525" data-name="Rectangle 1525" width="303.251" height="758.073" transform="translate(760.045 828.416) rotate(90)" fill="#d3ddf8"/>
          <rect id="Rectangle_1526" data-name="Rectangle 1526" width="309.035" height="10.36" transform="translate(518.813 822.632) rotate(90)" fill="#b3c0ec"/>
          <rect id="Rectangle_1527" data-name="Rectangle 1527" width="309.035" height="10.36" transform="translate(249.481 822.632) rotate(90)" fill="#b3c0ec"/>
          <rect id="Rectangle_1528" data-name="Rectangle 1528" width="20.108" height="775.474" transform="translate(775.474 808.309) rotate(90)" fill="#b3c0ec"/>
          <rect id="Rectangle_1529" data-name="Rectangle 1529" width="394.088" height="758.073" transform="translate(760.045 167.919) rotate(90)" fill="#d3ddf8"/>
          <rect id="Rectangle_1530" data-name="Rectangle 1530" width="309.035" height="10.36" transform="translate(518.813 252.971) rotate(90)" fill="#b3c0ec"/>
          <rect id="Rectangle_1531" data-name="Rectangle 1531" width="309.035" height="10.36" transform="translate(249.481 252.971) rotate(90)" fill="#b3c0ec"/>
          <g id="Group_608" data-name="Group 608" transform="translate(825.631 99.45)">
            <rect id="Rectangle_1532" data-name="Rectangle 1532" width="3.309" height="189.97" fill="#d3ddf8"/>
          </g>
          <path id="Path_230" data-name="Path 230" d="M712.3,553.757H678.511V467.2a16.772,16.772,0,0,1,16.9-16.646h0A16.773,16.773,0,0,1,712.3,467.2Z" transform="translate(131.878 -161.135)" fill="#d3ddf8"/>
          <g id="Group_609" data-name="Group 609" transform="translate(958.769 55.755)">
            <rect id="Rectangle_1533" data-name="Rectangle 1533" width="3.309" height="287.764" fill="#d3ddf8"/>
          </g>
          <path id="Path_231" data-name="Path 231" d="M792.781,586.949H758.992V500.391a16.77,16.77,0,0,1,16.893-16.644h0a16.771,16.771,0,0,1,16.9,16.644Z" transform="translate(184.536 -140.228)" fill="#d3ddf8"/>
          <g id="Group_610" data-name="Group 610" transform="translate(895.459 21.332)">
            <rect id="Rectangle_1534" data-name="Rectangle 1534" width="3.309" height="189.971" fill="#d3ddf8"/>
          </g>
          <path id="Path_232" data-name="Path 232" d="M754.511,505.829H720.722V419.273a16.771,16.771,0,0,1,16.9-16.646h0a16.77,16.77,0,0,1,16.894,16.646Z" transform="translate(159.497 -191.324)" fill="#d3ddf8"/>
        </g>
        <g id="Group_628" data-name="Group 628" transform="translate(1439.862 616.191)">
          <g id="Group_615" data-name="Group 615" transform="translate(0 248.704)">
            <g id="Group_614" data-name="Group 614">
              <g id="Group_612" data-name="Group 612">
                <path id="Path_233" data-name="Path 233" d="M1186.387,835.335h-77.573c-7.675,0-14.8,6.324-15.875,14.1l-25.967,200.975h6.546l25.833-200.041a10.061,10.061,0,0,1,9.463-8.4h77.573a10.054,10.054,0,0,1,9.461,8.4l25.838,200.041h6.541l-25.966-200.975C1201.183,841.659,1194.061,835.335,1186.387,835.335Z" transform="translate(-1066.972 -835.335)" fill="#fff"/>
              </g>
              <g id="Group_613" data-name="Group 613" transform="translate(6.27)">
                <path id="Path_234" data-name="Path 234" d="M1193.161,835.335l-72.188.287c-7.661,0-24.828,6.024-25.957,13.777l-24.254,201.008h9.526l25.764-200.028c.662-4.564,11.988-8.417,16.492-8.417l68.987.031c4.5,0,4.711,4.582,5.38,9.14l24.831,199.274h13.31L1209.107,849.4C1207.975,841.646,1200.826,835.335,1193.161,835.335Z" transform="translate(-1070.762 -835.335)" fill="#b3c0ec"/>
              </g>
            </g>
          </g>
          <g id="Group_619" data-name="Group 619" transform="translate(143.848 248.248)">
            <g id="Group_618" data-name="Group 618">
              <g id="Group_616" data-name="Group 616" transform="translate(6.275 0.002)">
                <path id="Path_235" data-name="Path 235" d="M1289.248,835.056h-88.569c-7.659,0-17.59,6.531-18.72,14.551l-24.239,200.975h9.524l25.75-199.963c.662-4.717,5.029-8.705,9.536-8.705H1287.4c4.508,0,2.4,3.007,3.062,7.727l37.319,200.941h12.093l-34.679-200.975C1304.067,841.587,1296.912,835.056,1289.248,835.056Z" transform="translate(-1157.72 -835.056)" fill="#b3c0ec"/>
              </g>
              <g id="Group_617" data-name="Group 617">
                <path id="Path_236" data-name="Path 236" d="M1282.48,835.055h-86.723c-7.663,0-14.806,6.537-15.919,14.565l-25.911,200.964h6.548l25.771-199.966c.653-4.717,5.011-8.7,9.512-8.7h86.723c4.569,0,9.166,4.016,10.035,8.767l33.938,199.9h6.67l-34.249-201.205C1297.428,841.48,1290.077,835.055,1282.48,835.055Z" transform="translate(-1153.927 -835.055)" fill="#fff"/>
              </g>
            </g>
          </g>
          <g id="Group_622" data-name="Group 622" transform="translate(281.991 131.26)">
            <g id="Group_620" data-name="Group 620" transform="translate(4.791)">
              <path id="Path_237" data-name="Path 237" d="M1240.329,873.383h8.746c5.492-12.462,15.152-59.986,19.688-96.174.544-4.34.971-7.77,1.267-9.571l.533-3.269-6.391-1.09C1258.131,801.023,1241.594,871.895,1240.329,873.383Z" transform="translate(-1240.329 -763.278)" fill="#b3c0ec"/>
            </g>
            <g id="Group_621" data-name="Group 621" transform="translate(0 2.321)">
              <path id="Path_238" data-name="Path 238" d="M1237.433,872.486h6.87c5.82-11.732,15.755-59.7,20.513-97.349.536-4.224.956-7.563,1.246-9.344l-6.389-1.09C1255.566,814.785,1238.915,870.486,1237.433,872.486Z" transform="translate(-1237.433 -764.702)" fill="#fff"/>
            </g>
          </g>
          <g id="Group_625" data-name="Group 625" transform="translate(145.387 131.259)">
            <g id="Group_623" data-name="Group 623" transform="translate(6.177)">
              <path id="Path_239" data-name="Path 239" d="M1178.754,775.156c-1.411,10.527-10.728,60.142-13.812,75.31-2.508,12.325-4.707,19.143-6.351,22.918h6.546c5.433-13.3,15.185-61.117,20.033-97.331.509-3.789,1.709-11.681,1.709-11.681l-6.389-1.094S1179.27,771.311,1178.754,775.156Z" transform="translate(-1158.591 -763.277)" fill="#b3c0ec"/>
            </g>
            <g id="Group_624" data-name="Group 624" transform="translate(0 2.323)">
              <path id="Path_240" data-name="Path 240" d="M1154.857,872.486h6.706c5.649-12.156,15.444-60.009,20.094-97.1.546-4.349.974-7.783,1.269-9.589l-6.39-1.09C1169.578,836.423,1156.445,869.8,1154.857,872.486Z" transform="translate(-1154.857 -764.702)" fill="#fff"/>
            </g>
          </g>
          <path id="Path_241" data-name="Path 241" d="M1341.538,682.744H1211.786c-12.278,0-23.8,9.271-25.6,20.607L1169.16,819.712a571.083,571.083,0,0,0,94.769,7.892c52.772,0,72.683-7.892,72.683-7.892l23.982-116.362C1362.4,692.015,1353.82,682.744,1341.538,682.744Z" transform="translate(-1000.112 -682.744)" fill="#b3c0ec"/>
          <path id="Path_242" data-name="Path 242" d="M1337.612,682.744H1207.858c-12.276,0-23.8,9.271-25.6,20.607l-23.984,116.362S1207.23,827.6,1260,827.6s72.681-7.892,72.681-7.892l23.982-116.362C1358.471,692.015,1349.894,682.744,1337.612,682.744Z" transform="translate(-1007.233 -682.744)" fill="#d3ddf8"/>
          <g id="Group_626" data-name="Group 626" transform="translate(146.325 239.357)">
            <path id="Path_243" data-name="Path 243" d="M1155.5,829.6c-.017.347-.073.68-.073,1.032,0,8.257,4.739,14.954,10.584,14.954H1301.7c5.846,0,10.589-6.7,10.589-14.954,0-.352-.056-.685-.073-1.032Z" transform="translate(-1155.424 -829.6)" fill="#b3c0ec"/>
          </g>
          <g id="Group_627" data-name="Group 627" transform="translate(13.472 239.357)">
            <path id="Path_244" data-name="Path 244" d="M1075.2,829.6c-.02.347-.084.68-.084,1.032,0,8.257,5.4,14.954,12.05,14.954h159.49c6.655,0,12.053-6.7,12.053-14.954,0-.352-.063-.685-.083-1.032Z" transform="translate(-1075.116 -829.6)" fill="#d3ddf8"/>
          </g>
        </g>
        <g id="Group_629" data-name="Group 629" transform="translate(1124.093 726.631)">
          <rect id="Rectangle_1535" data-name="Rectangle 1535" width="9.635" height="330.865" transform="translate(719.067 22.471)" fill="#b3c0ec"/>
          <path id="Path_245" data-name="Path 245" d="M1046.921,1095.156h9.637V764.291h-9.637Z" transform="translate(-764.322 -741.82)" fill="#b3c0ec"/>
          <rect id="Rectangle_1536" data-name="Rectangle 1536" width="59.23" height="124.943" transform="translate(247.248 60.086)" fill="#d3ddf8"/>
          <rect id="Rectangle_1537" data-name="Rectangle 1537" width="161.157" height="14.384" transform="translate(621.034)" fill="#d3ddf8"/>
          <rect id="Rectangle_1538" data-name="Rectangle 1538" width="161.159" height="8.079" transform="translate(585.724 14.384)" fill="#b3c0ec"/>
          <path id="Path_246" data-name="Path 246" d="M1053.421,799.784H954.2l-6.33-7.619H924.086v110.54h159.455V792.165h-23.79Z" transform="translate(-844.692 -724.263)" fill="#fff"/>
          <rect id="Rectangle_1539" data-name="Rectangle 1539" width="660.397" height="14.384" fill="#fff"/>
          <rect id="Rectangle_1540" data-name="Rectangle 1540" width="550.408" height="8.079" transform="translate(35.317 14.384)" fill="#e2e9fb"/>
          <rect id="Rectangle_1541" data-name="Rectangle 1541" width="9.633" height="330.865" transform="translate(550.117 22.471)" fill="#fff"/>
          <path id="Path_247" data-name="Path 247" d="M1025.552,801.909v2.725l.066,12.711c4.028,0,9.542-3.671,9.542-11.088V764.286h-9.608Z" transform="translate(-778.304 -741.823)" fill="#e2e9fb"/>
          <path id="Path_248" data-name="Path 248" d="M1061.263,817.332c4.015-.055,9.444-3.716,9.444-11.075V764.286h-9.444Z" transform="translate(-754.938 -741.823)" fill="#b3c0ec"/>
          <path id="Path_249" data-name="Path 249" d="M919.009,912.312h176.253V787.369H919.009Zm8.4-117.126h159.455V904.5H927.408Z" transform="translate(-848.013 -727.284)" fill="#b3c0ec"/>
          <path id="Path_250" data-name="Path 250" d="M944.8,799.784h99.217l6.329-7.619H938.466Z" transform="translate(-835.283 -724.263)" fill="#b3c0ec"/>
          <path id="Path_251" data-name="Path 251" d="M944.8,826.082h99.217l6.329-7.623H938.466Z" transform="translate(-835.283 -707.701)" fill="#b3c0ec"/>
          <path id="Path_252" data-name="Path 252" d="M944.8,846.469h99.217l6.329-7.621H938.466Z" transform="translate(-835.283 -694.858)" fill="#b3c0ec"/>
          <path id="Path_253" data-name="Path 253" d="M913.143,1095.156h9.635V764.291h-9.635Z" transform="translate(-851.852 -741.82)" fill="#fff"/>
        </g>
      </g>
    </g>
  </g>
</svg>
